<svg width="145" height="60" viewBox="0 0 145 60" fill="none" xmlns="http://www.w3.org/2000/svg">
<ellipse cx="21.0138" cy="18.3439" rx="21.0138" ry="18.3439" fill="#E9A0B6"/>
<rect x="17.5115" y="14.5223" width="42.0276" height="36.6879" fill="#59ABB0"/>
<path d="M59.758 23.3121L78.5252 32.4841V50.828L59.758 60L40.9908 50.828V32.4841L59.758 23.3121Z" fill="#E6EC9C"/>
<path d="M15.3542 43.2874C16.4369 43.2874 17.2302 43.0821 17.7342 42.6714C18.2382 42.2421 18.4902 41.7101 18.4902 41.0754C18.4902 40.4967 18.2942 40.0394 17.9022 39.7034C17.5102 39.3487 16.9129 39.0501 16.1102 38.8074L14.3182 38.2474C13.6089 38.0234 12.9649 37.7714 12.3862 37.4914C11.8075 37.2114 11.3129 36.8847 10.9022 36.5114C10.4915 36.1194 10.1742 35.6714 9.95019 35.1674C9.72619 34.6447 9.61419 34.0287 9.61419 33.3194C9.61419 31.8074 10.1835 30.6127 11.3222 29.7354C12.4609 28.8394 14.0195 28.3914 15.9982 28.3914C16.7822 28.3914 17.5009 28.4567 18.1542 28.5874C18.8262 28.6994 19.4049 28.8674 19.8902 29.0914C20.3755 29.2967 20.7489 29.5581 21.0102 29.8754C21.2902 30.1927 21.4302 30.5474 21.4302 30.9394C21.4302 31.3127 21.3369 31.6394 21.1502 31.9194C20.9822 32.1807 20.7675 32.3954 20.5062 32.5634C20.0582 32.2461 19.4609 31.9754 18.7142 31.7514C17.9862 31.5087 17.1835 31.3874 16.3062 31.3874C15.3355 31.3874 14.5982 31.5647 14.0942 31.9194C13.5902 32.2554 13.3382 32.7221 13.3382 33.3194C13.3382 33.8047 13.5062 34.1781 13.8422 34.4394C14.1969 34.7007 14.7475 34.9527 15.4942 35.1954L17.0902 35.6994C18.7142 36.1847 19.9742 36.8474 20.8702 37.6874C21.7662 38.5274 22.2142 39.6661 22.2142 41.1034C22.2142 41.8687 22.0649 42.5687 21.7662 43.2034C21.4675 43.8381 21.0289 44.3887 20.4502 44.8554C19.8902 45.3034 19.1809 45.6487 18.3222 45.8914C17.4822 46.1527 16.5209 46.2834 15.4382 46.2834C14.5795 46.2834 13.7862 46.2087 13.0582 46.0594C12.3489 45.9101 11.7329 45.7141 11.2102 45.4714C10.6875 45.2101 10.2769 44.9114 9.97819 44.5754C9.69819 44.2207 9.55819 43.8381 9.55819 43.4274C9.55819 42.9981 9.67952 42.6341 9.92219 42.3354C10.1835 42.0181 10.4822 41.7847 10.8182 41.6354C11.2849 42.0461 11.9009 42.4287 12.6662 42.7834C13.4315 43.1194 14.3275 43.2874 15.3542 43.2874ZM25.1853 32.6754C25.3346 32.6381 25.5493 32.5914 25.8293 32.5354C26.1279 32.4794 26.4453 32.4514 26.7812 32.4514C27.4533 32.4514 27.9386 32.5727 28.2373 32.8154C28.5546 33.0581 28.7133 33.4874 28.7133 34.1034V45.8074C28.5639 45.8447 28.3399 45.8914 28.0413 45.9474C27.7613 46.0034 27.4533 46.0314 27.1173 46.0314C26.4453 46.0314 25.9506 45.9101 25.6333 45.6674C25.3346 45.4247 25.1853 44.9954 25.1853 44.3794V32.6754ZM24.9053 28.6154C24.9053 28.0741 25.0919 27.6167 25.4653 27.2434C25.8573 26.8514 26.3519 26.6554 26.9493 26.6554C27.5466 26.6554 28.0319 26.8514 28.4053 27.2434C28.7786 27.6167 28.9653 28.0741 28.9653 28.6154C28.9653 29.1754 28.7786 29.6514 28.4053 30.0434C28.0319 30.4167 27.5466 30.6034 26.9493 30.6034C26.3519 30.6034 25.8573 30.4167 25.4653 30.0434C25.0919 29.6514 24.9053 29.1754 24.9053 28.6154ZM52.1134 45.8074C51.964 45.8447 51.74 45.8914 51.4414 45.9474C51.1614 46.0034 50.8534 46.0314 50.5174 46.0314C49.8454 46.0314 49.3507 45.9101 49.0334 45.6674C48.7347 45.4247 48.5854 44.9954 48.5854 44.3794V37.0994C48.5854 36.3527 48.38 35.8114 47.9694 35.4754C47.5587 35.1394 47.0174 34.9714 46.3454 34.9714C45.8974 34.9714 45.4587 35.0554 45.0294 35.2234C44.6187 35.3914 44.2547 35.6154 43.9374 35.8954C43.9934 36.1567 44.0214 36.4181 44.0214 36.6794V45.8074C43.872 45.8447 43.648 45.8914 43.3494 45.9474C43.0694 46.0034 42.7614 46.0314 42.4254 46.0314C41.7534 46.0314 41.2587 45.9101 40.9414 45.6674C40.6427 45.4247 40.4934 44.9954 40.4934 44.3794V37.0994C40.4934 36.3527 40.2787 35.8114 39.8494 35.4754C39.42 35.1394 38.8694 34.9714 38.1974 34.9714C37.7307 34.9714 37.3014 35.0461 36.9094 35.1954C36.5174 35.3447 36.1907 35.4941 35.9294 35.6434V45.8074C35.7614 45.8447 35.5374 45.8914 35.2574 45.9474C34.9774 46.0034 34.66 46.0314 34.3054 46.0314C33.652 46.0314 33.1667 45.9101 32.8494 45.6674C32.532 45.4247 32.3734 44.9954 32.3734 44.3794V35.3914C32.3734 34.9621 32.4667 34.6074 32.6534 34.3274C32.84 34.0287 33.1294 33.7487 33.5214 33.4874C34.0814 33.1141 34.7907 32.8061 35.6494 32.5634C36.508 32.3021 37.3947 32.1714 38.3094 32.1714C40.008 32.1714 41.3894 32.6287 42.4534 33.5434C42.9947 33.1514 43.6107 32.8247 44.3014 32.5634C45.0107 32.3021 45.8414 32.1714 46.7934 32.1714C47.5214 32.1714 48.212 32.2647 48.8654 32.4514C49.5187 32.6194 50.0787 32.8994 50.5454 33.2914C51.0307 33.6834 51.4134 34.1874 51.6934 34.8034C51.9734 35.4007 52.1134 36.1194 52.1134 36.9594V45.8074ZM61.9703 46.2274C61.4289 46.2274 60.9249 46.1714 60.4583 46.0594C60.0103 45.9661 59.5996 45.8447 59.2263 45.6954V50.8474C59.0583 50.8847 58.8343 50.9314 58.5543 50.9874C58.2743 51.0434 57.9569 51.0714 57.6022 51.0714C56.9489 51.0714 56.4636 50.9501 56.1463 50.7074C55.8289 50.4647 55.6703 50.0354 55.6703 49.4194V35.2234C55.6703 34.7754 55.7543 34.4114 55.9223 34.1314C56.1089 33.8514 56.3983 33.5901 56.7903 33.3474C57.3316 33.0301 58.0036 32.7594 58.8063 32.5354C59.6089 32.2927 60.5143 32.1714 61.5223 32.1714C62.5489 32.1714 63.4916 32.3114 64.3503 32.5914C65.2276 32.8527 65.9836 33.2727 66.6183 33.8514C67.2529 34.4114 67.7476 35.1301 68.1023 36.0074C68.4569 36.8847 68.6343 37.9301 68.6343 39.1434C68.6343 40.3194 68.4663 41.3461 68.1303 42.2234C67.7943 43.1007 67.3276 43.8381 66.7303 44.4354C66.1516 45.0327 65.4516 45.4807 64.6303 45.7794C63.8276 46.0781 62.9409 46.2274 61.9703 46.2274ZM61.4383 43.3994C62.5583 43.3994 63.4356 43.0541 64.0703 42.3634C64.7049 41.6727 65.0223 40.5994 65.0223 39.1434C65.0223 37.6314 64.6956 36.5581 64.0423 35.9234C63.3889 35.2887 62.5489 34.9714 61.5223 34.9714C61.0183 34.9714 60.5703 35.0367 60.1783 35.1674C59.8049 35.2981 59.4783 35.4381 59.1983 35.5874V42.7834C59.4969 42.9701 59.8236 43.1194 60.1783 43.2314C60.5516 43.3434 60.9716 43.3994 61.4383 43.3994ZM75.2536 45.8074C75.1043 45.8447 74.8803 45.8914 74.5816 45.9474C74.3016 46.0034 73.9936 46.0314 73.6576 46.0314C72.9856 46.0314 72.491 45.9101 72.1736 45.6674C71.875 45.4247 71.7256 44.9954 71.7256 44.3794V27.6354C71.875 27.5794 72.0896 27.5327 72.3696 27.4954C72.6683 27.4394 72.9856 27.4114 73.3216 27.4114C73.9936 27.4114 74.479 27.5327 74.7776 27.7754C75.095 28.0181 75.2536 28.4474 75.2536 29.0634V45.8074ZM81.8511 40.7954C82.1125 41.7474 82.5978 42.4381 83.3071 42.8674C84.0165 43.2967 84.8938 43.5114 85.9391 43.5114C86.7231 43.5114 87.4418 43.3994 88.0951 43.1754C88.7671 42.9327 89.3085 42.6807 89.7191 42.4194C89.9805 42.5687 90.1951 42.7741 90.3631 43.0354C90.5311 43.2967 90.6151 43.5767 90.6151 43.8754C90.6151 44.2487 90.4845 44.5847 90.2231 44.8834C89.9805 45.1634 89.6351 45.4061 89.1871 45.6114C88.7578 45.8167 88.2445 45.9754 87.6471 46.0874C87.0498 46.1994 86.4058 46.2554 85.7151 46.2554C84.6138 46.2554 83.6058 46.1061 82.6911 45.8074C81.7951 45.5087 81.0205 45.0607 80.3671 44.4634C79.7325 43.8474 79.2285 43.0914 78.8551 42.1954C78.5005 41.2994 78.3231 40.2541 78.3231 39.0594C78.3231 37.9021 78.5005 36.8941 78.8551 36.0354C79.2098 35.1767 79.6858 34.4581 80.2831 33.8794C80.8991 33.3007 81.6085 32.8714 82.4111 32.5914C83.2138 32.3114 84.0631 32.1714 84.9591 32.1714C85.8738 32.1714 86.7138 32.3207 87.4791 32.6194C88.2445 32.8994 88.8978 33.3007 89.4391 33.8234C89.9805 34.3274 90.4005 34.9434 90.6991 35.6714C91.0165 36.3807 91.1751 37.1554 91.1751 37.9954C91.1751 38.5181 91.0351 38.9101 90.7551 39.1714C90.4938 39.4327 90.1205 39.6007 89.6351 39.6754L81.8511 40.7954ZM84.9591 34.8314C84.0445 34.8314 83.2791 35.1394 82.6631 35.7554C82.0471 36.3527 81.7018 37.2114 81.6271 38.3314L87.8431 37.4074C87.7685 36.7167 87.4978 36.1194 87.0311 35.6154C86.5645 35.0927 85.8738 34.8314 84.9591 34.8314ZM109.414 41.8314H103.142C102.936 42.5221 102.712 43.2407 102.47 43.9874C102.246 44.7341 102.059 45.3501 101.91 45.8354C101.723 45.9101 101.518 45.9754 101.294 46.0314C101.088 46.0874 100.827 46.1154 100.51 46.1154C99.875 46.1154 99.3803 45.9941 99.0256 45.7514C98.671 45.4901 98.4936 45.1261 98.4936 44.6594C98.4936 44.4354 98.5216 44.2207 98.5776 44.0154C98.6523 43.7914 98.7363 43.5394 98.8296 43.2594C98.979 42.7367 99.175 42.1114 99.4176 41.3834C99.679 40.6367 99.9496 39.8341 100.23 38.9754C100.528 38.0981 100.846 37.2021 101.182 36.2874C101.518 35.3541 101.835 34.4581 102.134 33.5994C102.451 32.7221 102.75 31.9101 103.03 31.1634C103.328 30.3981 103.58 29.7447 103.786 29.2034C104.028 29.0727 104.383 28.9421 104.85 28.8114C105.335 28.6807 105.82 28.6154 106.306 28.6154C106.959 28.6154 107.556 28.7181 108.098 28.9234C108.639 29.1101 108.984 29.4181 109.134 29.8474C109.507 30.8741 109.918 32.0594 110.366 33.4034C110.814 34.7287 111.262 36.1007 111.71 37.5194C112.176 38.9381 112.624 40.3287 113.054 41.6914C113.483 43.0541 113.866 44.2767 114.202 45.3594C114.015 45.5647 113.754 45.7327 113.418 45.8634C113.1 46.0127 112.718 46.0874 112.27 46.0874C111.616 46.0874 111.15 45.9754 110.87 45.7514C110.608 45.5087 110.403 45.1354 110.254 44.6314L109.414 41.8314ZM106.278 31.8074C106.11 32.2741 105.923 32.7967 105.718 33.3754C105.531 33.9541 105.326 34.5607 105.102 35.1954C104.896 35.8114 104.682 36.4461 104.458 37.0994C104.234 37.7341 104.019 38.3594 103.814 38.9754H108.686L106.418 31.8074H106.278ZM120.175 45.8074C120.007 45.8447 119.783 45.8914 119.503 45.9474C119.223 46.0034 118.906 46.0314 118.551 46.0314C117.898 46.0314 117.413 45.9101 117.095 45.6674C116.778 45.4247 116.619 44.9954 116.619 44.3794V35.5034C116.619 35.0181 116.731 34.6074 116.955 34.2714C117.179 33.9354 117.506 33.6367 117.935 33.3754C118.514 33.0207 119.223 32.7314 120.063 32.5074C120.922 32.2834 121.846 32.1714 122.835 32.1714C124.609 32.1714 125.495 32.7221 125.495 33.8234C125.495 34.0847 125.449 34.3367 125.355 34.5794C125.281 34.8034 125.197 34.9901 125.103 35.1394C124.674 35.0461 124.142 34.9994 123.507 34.9994C122.854 34.9994 122.238 35.0741 121.659 35.2234C121.081 35.3727 120.586 35.5594 120.175 35.7834V45.8074ZM131.304 41.7194C131.304 42.3167 131.482 42.7461 131.836 43.0074C132.21 43.2687 132.723 43.3994 133.376 43.3994C133.694 43.3994 134.011 43.3621 134.328 43.2874C134.664 43.2127 134.963 43.1194 135.224 43.0074C135.374 43.1567 135.495 43.3434 135.588 43.5674C135.7 43.7727 135.756 44.0154 135.756 44.2954C135.756 44.8554 135.504 45.3221 135 45.6954C134.496 46.0501 133.684 46.2274 132.564 46.2274C131.09 46.2274 129.923 45.9007 129.064 45.2474C128.224 44.5754 127.804 43.4741 127.804 41.9434V29.0914C127.954 29.0541 128.168 29.0074 128.448 28.9514C128.747 28.8954 129.064 28.8674 129.4 28.8674C130.054 28.8674 130.53 28.9887 130.828 29.2314C131.146 29.4741 131.304 29.9034 131.304 30.5194V32.8434H135.42C135.514 32.9927 135.598 33.1887 135.672 33.4314C135.747 33.6741 135.784 33.9354 135.784 34.2154C135.784 34.7007 135.672 35.0554 135.448 35.2794C135.224 35.5034 134.926 35.6154 134.552 35.6154H131.304V41.7194Z" fill="black"/>
</svg>
