<svg aria-hidden="true" style="position: absolute; width: 0; height: 0; overflow: hidden;" version="1.1" xmlns="http://www.w3.org/2000/svg" xmlns:xlink="http://www.w3.org/1999/xlink">
<defs>
<symbol id="icon-instagram-2" viewBox="0 0 30 32">
<path fill="#59abb0" style="fill: var(--color1, #59abb0)" d="M15.207 8.128c-4.316 0-7.797 3.512-7.797 7.865s3.481 7.865 7.797 7.865c4.316 0 7.797-3.512 7.797-7.865s-3.481-7.865-7.797-7.865zM15.207 21.107c-2.789 0-5.069-2.293-5.069-5.113s2.273-5.113 5.069-5.113c2.796 0 5.069 2.293 5.069 5.113s-2.28 5.113-5.069 5.113zM25.141 7.806c0 1.020-0.814 1.835-1.819 1.835-1.011 0-1.819-0.821-1.819-1.835s0.814-1.835 1.819-1.835c1.004 0 1.819 0.821 1.819 1.835zM30.305 9.668c-0.115-2.457-0.672-4.634-2.456-6.428-1.778-1.793-3.936-2.355-6.372-2.478-2.511-0.144-10.036-0.144-12.547 0-2.429 0.116-4.587 0.678-6.372 2.471s-2.334 3.97-2.456 6.428c-0.142 2.533-0.142 10.124 0 12.657 0.115 2.457 0.672 4.634 2.456 6.428s3.936 2.355 6.372 2.478c2.511 0.144 10.036 0.144 12.547 0 2.436-0.116 4.594-0.678 6.372-2.478 1.778-1.793 2.334-3.97 2.456-6.428 0.143-2.533 0.143-10.117 0-12.65zM27.061 25.036c-0.529 1.342-1.554 2.375-2.891 2.916-2.002 0.801-6.752 0.616-8.964 0.616s-6.969 0.178-8.964-0.616c-1.33-0.534-2.355-1.568-2.891-2.916-0.794-2.019-0.611-6.811-0.611-9.043s-0.176-7.030 0.611-9.043c0.529-1.342 1.554-2.375 2.891-2.916 2.002-0.801 6.752-0.616 8.964-0.616s6.969-0.178 8.964 0.616c1.33 0.534 2.355 1.568 2.891 2.916 0.794 2.019 0.611 6.811 0.611 9.043s0.183 7.030-0.611 9.043z"></path>
</symbol>
<symbol id="icon-address" viewBox="0 0 37 32">
<path fill="#59abb0" style="fill: var(--color1, #59abb0)" d="M18.4 0c-4.446 0-8.050 3.526-8.050 7.875 0 3.516 5.261 9.925 7.277 12.251 0.408 0.471 1.139 0.471 1.546 0 2.016-2.326 7.277-8.735 7.277-12.251 0-4.349-3.604-7.875-8.050-7.875zM18.4 10.5c-1.482 0-2.683-1.175-2.683-2.625s1.201-2.625 2.683-2.625 2.683 1.175 2.683 2.625c0 1.45-1.201 2.625-2.683 2.625zM1.285 13.497c-0.379 0.148-0.705 0.405-0.934 0.736s-0.352 0.722-0.352 1.121v15.645c0 0.708 0.73 1.191 1.402 0.929l8.82-3.928v-14.568c-0.565-0.999-1.027-1.971-1.358-2.901l-7.579 2.966zM18.4 22.479c-0.899 0-1.749-0.386-2.333-1.060-1.256-1.45-2.592-3.101-3.801-4.795v11.375l12.267 4v-15.374c-1.209 1.693-2.544 3.345-3.801 4.795-0.583 0.673-1.434 1.059-2.333 1.059zM35.398 10.072l-8.82 3.928v18l8.937-3.497c0.379-0.148 0.705-0.405 0.934-0.736s0.352-0.722 0.352-1.121v-15.645c0-0.707-0.73-1.191-1.402-0.929z"></path>
</symbol>
<symbol id="icon-phone" viewBox="0 0 32 32">
<path fill="#59abb0" style="fill: var(--color1, #59abb0)" d="M31.087 22.612l-7-3c-0.299-0.127-0.631-0.154-0.947-0.076s-0.597 0.256-0.803 0.508l-3.1 3.788c-4.865-2.294-8.78-6.209-11.074-11.074l3.787-3.1c0.252-0.205 0.431-0.487 0.509-0.803s0.051-0.648-0.077-0.947l-3-7c-0.141-0.322-0.389-0.585-0.703-0.744s-0.673-0.203-1.016-0.125l-6.5 1.5c-0.331 0.076-0.625 0.262-0.837 0.528s-0.326 0.595-0.326 0.934c0 16.031 12.994 29 29 29 0.339 0 0.669-0.115 0.934-0.326s0.452-0.506 0.528-0.837l1.5-6.5c0.077-0.344 0.032-0.705-0.128-1.020s-0.424-0.564-0.748-0.705z"></path>
</symbol>
<symbol id="icon-facebook-1" viewBox="0 0 30 32">
<path fill="#59abb0" style="fill: var(--color1, #59abb0)" d="M27.143 0.667h-23.886c-0.864 0-1.692 0.346-2.303 0.962s-0.954 1.452-0.954 2.323v24.095c0 0.872 0.343 1.707 0.954 2.323s1.439 0.962 2.303 0.962h9.313v-10.426h-4.275v-4.907h4.275v-3.74c0-4.254 2.511-6.604 6.356-6.604 1.842 0 3.767 0.331 3.767 0.331v4.176h-2.122c-2.091 0-2.743 1.309-2.743 2.651v3.186h4.667l-0.746 4.907h-3.921v10.426h9.313c0.864 0 1.692-0.346 2.303-0.962s0.954-1.452 0.954-2.323v-24.095c0-0.871-0.343-1.707-0.954-2.323s-1.439-0.962-2.303-0.962z"></path>
</symbol>
<symbol id="icon-twitter-1" viewBox="0 0 36 32">
<path fill="#59abb0" style="fill: var(--color1, #59abb0)" d="M31.901 8.758c0.023 0.316 0.023 0.632 0.023 0.948 0 9.633-7.332 20.733-20.733 20.733-4.129 0-7.964-1.196-11.19-3.271 0.587 0.068 1.151 0.090 1.76 0.090 3.407 0 6.543-1.151 9.047-3.113-3.204-0.068-5.888-2.166-6.813-5.053 0.451 0.068 0.902 0.113 1.376 0.113 0.654 0 1.309-0.090 1.918-0.248-3.339-0.677-5.843-3.61-5.843-7.152v-0.090c0.97 0.541 2.098 0.88 3.294 0.925-1.963-1.309-3.249-3.542-3.249-6.069 0-1.354 0.361-2.594 0.993-3.677 3.587 4.422 8.979 7.31 15.025 7.625-0.113-0.541-0.18-1.105-0.18-1.669 0-4.016 3.249-7.287 7.287-7.287 2.098 0 3.993 0.88 5.324 2.301 1.647-0.316 3.226-0.925 4.625-1.76-0.541 1.692-1.692 3.113-3.204 4.016 1.467-0.158 2.888-0.564 4.196-1.128-0.993 1.444-2.233 2.73-3.655 3.768z"></path>
</symbol>
<symbol id="icon-back" viewBox="0 0 29 32">
<path d="M16.094 27.819l-1.387 1.387c-0.588 0.588-1.537 0.588-2.119 0l-12.15-12.144c-0.588-0.587-0.588-1.537 0-2.119l12.15-12.15c0.588-0.587 1.537-0.587 2.119 0l1.387 1.388c0.594 0.594 0.581 1.563-0.025 2.144l-7.531 7.175h17.962c0.831 0 1.5 0.669 1.5 1.5v2c0 0.831-0.669 1.5-1.5 1.5h-17.962l7.531 7.175c0.612 0.581 0.625 1.55 0.025 2.144z"></path>
</symbol>
<symbol id="icon-done" viewBox="0 0 32 32">
<path fill="#59abb0" style="fill: var(--color1, #59abb0)" d="M16 0c-3.165 0-6.258 0.938-8.889 2.696s-4.682 4.257-5.893 7.181c-1.211 2.924-1.528 6.141-0.91 9.244s2.141 5.955 4.379 8.192c2.238 2.238 5.089 3.761 8.192 4.379s6.321 0.301 9.244-0.91c2.924-1.211 5.423-3.262 7.181-5.893s2.696-5.725 2.696-8.889c0-2.101-0.414-4.182-1.218-6.123s-1.983-3.705-3.468-5.191-3.25-2.664-5.191-3.468c-1.941-0.804-4.022-1.218-6.123-1.218zM22.88 12.176l-7.312 9.6c-0.149 0.194-0.34 0.351-0.56 0.459s-0.46 0.165-0.704 0.165c-0.243 0.001-0.483-0.053-0.702-0.158s-0.411-0.259-0.562-0.45l-3.904-4.976c-0.129-0.166-0.224-0.356-0.28-0.559s-0.071-0.415-0.045-0.623 0.093-0.41 0.197-0.593c0.104-0.183 0.243-0.344 0.409-0.473 0.335-0.261 0.76-0.378 1.182-0.326 0.209 0.026 0.41 0.093 0.593 0.197s0.344 0.243 0.473 0.409l2.608 3.328 6.048-8c0.128-0.168 0.288-0.309 0.471-0.416s0.385-0.175 0.594-0.204c0.209-0.028 0.422-0.015 0.627 0.039s0.396 0.148 0.564 0.276c0.168 0.128 0.309 0.288 0.416 0.471s0.176 0.385 0.204 0.594c0.028 0.21 0.015 0.422-0.039 0.627s-0.148 0.396-0.276 0.564v0.048z"></path>
</symbol>
<symbol id="icon-close" viewBox="0 0 32 32">
<path fill="#4f5d5d" style="fill: var(--color1, #4f5d5d)" d="M19.756 15.998l11.456-11.431c0.502-0.502 0.783-1.182 0.783-1.892s-0.282-1.39-0.783-1.892c-0.502-0.502-1.182-0.784-1.892-0.784s-1.39 0.282-1.891 0.784l-11.429 11.457-11.429-11.457c-0.502-0.502-1.182-0.784-1.891-0.784s-1.39 0.282-1.891 0.784c-0.502 0.502-0.783 1.182-0.783 1.892s0.282 1.39 0.783 1.892l11.456 11.431-11.456 11.431c-0.25 0.248-0.448 0.542-0.583 0.867s-0.205 0.673-0.205 1.025c0 0.352 0.070 0.7 0.205 1.025s0.333 0.619 0.583 0.867c0.248 0.25 0.542 0.448 0.867 0.583s0.673 0.205 1.025 0.205 0.7-0.070 1.025-0.205c0.325-0.135 0.619-0.333 0.867-0.583l11.429-11.457 11.429 11.457c0.248 0.25 0.542 0.448 0.867 0.583s0.673 0.205 1.024 0.205c0.352 0 0.7-0.070 1.025-0.205s0.619-0.333 0.867-0.583c0.25-0.248 0.448-0.542 0.583-0.867s0.205-0.673 0.205-1.025c0-0.352-0.070-0.7-0.205-1.025s-0.334-0.619-0.583-0.867l-11.456-11.431z"></path>
</symbol>
<symbol id="icon-error" viewBox="0 0 38 32">
<path fill="#ff024e" style="fill: var(--color1, #ff024e)" d="M35.839 28.9l-15.6-27c-0.233-0.401-0.634-0.6-1.039-0.6s-0.81 0.199-1.039 0.6l-15.6 27c-0.461 0.802 0.116 1.8 1.039 1.8h31.2c0.923 0 1.5-0.997 1.039-1.8zM18 12.4c0-0.165 0.135-0.3 0.3-0.3h1.8c0.165 0 0.3 0.135 0.3 0.3v6.9c0 0.165-0.135 0.3-0.3 0.3h-1.8c-0.165 0-0.3-0.135-0.3-0.3v-6.9zM19.2 25.6c-0.471-0.010-0.92-0.203-1.249-0.54s-0.514-0.789-0.514-1.26 0.185-0.924 0.514-1.26c0.33-0.337 0.778-0.53 1.249-0.54 0.471 0.010 0.92 0.203 1.249 0.54s0.514 0.789 0.514 1.26c0 0.471-0.185 0.924-0.514 1.26s-0.778 0.53-1.249 0.54z"></path>
</symbol>
</defs>
</svg>
